<?xml version="1.0" encoding="iso-8859-1"?>
<!-- Generator: Adobe Illustrator 16.0.0, SVG Export Plug-In . SVG Version: 6.00 Build 0)  -->
<!DOCTYPE svg [
	<!ENTITY ns_flows "http://ns.adobe.com/Flows/1.0/">
	<!ENTITY ns_extend "http://ns.adobe.com/Extensibility/1.0/">
	<!ENTITY ns_ai "http://ns.adobe.com/AdobeIllustrator/10.0/">
	<!ENTITY ns_graphs "http://ns.adobe.com/Graphs/1.0/">
]>
<svg version="1.2" baseProfile="tiny" id="Layer_1" xmlns:x="&ns_extend;" xmlns:i="&ns_ai;" xmlns:graph="&ns_graphs;"
	 xmlns="http://www.w3.org/2000/svg" xmlns:xlink="http://www.w3.org/1999/xlink" xmlns:a="http://ns.adobe.com/AdobeSVGViewerExtensions/3.0/"
	 x="0px" y="0px" width="610px" height="110px" viewBox="0 0 610 110" xml:space="preserve">
<g id="Artboard">
	<path id="Fill-12_1_" fill="#FF4824" d="M567.686,53.871c7.939-1.82,16.197,1.283,20.973,7.879l-36.301,8.211
		C553.607,62.275,559.469,55.727,567.686,53.871z M588.861,84.088c-2.871,4.156-7.207,7.074-12.135,8.17
		c-8.268,1.873-16.52-1.555-21.064-8.006l36.414-8.242l5.934-1.34l11.34-2.564c-0.068-2.439-0.387-4.861-0.947-7.234
		c-4.611-19.596-24.563-31.811-44.553-27.289c-19.992,4.525-32.457,24.08-27.842,43.672c4.613,19.596,24.563,31.814,44.551,27.293
		c11.783-2.668,20.947-10.553,25.545-20.588L588.861,84.088z"/>
	<path id="Fill-10_1_" fill="#FF4824" d="M503.166,107.557V55.605h-11.211V37.904h11.211V13.543h19.041v24.361h14.301v17.701
		h-14.301v51.952H503.166z"/>
	<path id="Fill-7_1_" fill="#FF4824" d="M466.793,107.557h18.388V37.904h-18.388V107.557z M464.4,13.471
		c0-6.447,5.084-11.284,11.664-11.284c6.579,0,11.511,4.836,11.511,11.284c0,6.448-4.932,11.429-11.511,11.429
		C469.484,24.9,464.4,19.919,464.4,13.471z"/>
	<path id="Fill-9_1_" fill="#FF4824" d="M460.392,38.1c-9.399,0.489-14.944,1.931-20.585,6.016v-6.212h-18.376v69.652h18.376V73.402
		c0-10.746,2.621-16.861,20.585-17.462V38.1z"/>
	<path id="Fill-5_1_" fill="#FF4824" d="M357.928,73.824c0.459,10.168,9.307,18.689,20.134,18.689
		c10.98,0,19.979-8.973,19.979-19.584c0-10.467-8.996-19.435-19.979-19.435c-10.827,0-19.675,8.667-20.134,18.685V73.824z
		 M339.998,107.557V4.672l18.389-4.159v42.576c5.678-4.544,12.409-6.45,19.735-6.45c20.931,0,37.678,16.12,37.678,36.345
		c0,20.074-16.747,36.486-37.678,36.486c-7.326,0-14.058-1.902-19.735-6.447v4.535h-18.389V107.557z"/>
	<path id="Fill-1_1_" fill="#FF4824" d="M300.857,107.557v-52.31h-11.212V37.904h11.212V13.526l19.041-4.31v28.688h14.304v17.342
		h-14.304v52.31H300.857z"/>
	<path id="Fill-3_1_" fill="#FF4824" d="M267.158,107.557V70.344c0-13.482-7.325-16.413-14.652-16.413
		c-7.325,0-14.653,2.782-14.653,16.118v37.508h-18.389V37.904h18.389v5.182c4.038-2.93,8.972-6.45,18.693-6.45
		c15.547,0,29.001,8.94,29.001,30.775v40.145H267.158z"/>
	<path id="Fill-11_1_" fill="#FF4824" d="M172.9,53.871c8.213-1.862,16.411,1.508,20.973,7.879l-36.3,8.211
		C158.822,62.275,164.685,55.727,172.9,53.871z M194.077,84.088c-2.87,4.156-7.206,7.074-12.137,8.17
		c-7.994,1.834-16.304-1.328-21.062-8.006l36.416-8.242l5.928-1.34l11.345-2.564c-0.068-2.439-0.386-4.861-0.946-7.234
		c-4.617-19.596-24.567-31.811-44.558-27.289c-19.993,4.525-32.458,24.08-27.842,43.672c4.614,19.596,24.564,31.814,44.557,27.293
		c11.779-2.668,20.943-10.553,25.542-20.588L194.077,84.088z"/>
	<path id="Fill-2_1_" fill="#FF4824" d="M97.9,107.557L69.346,37.904H89.38l18.09,47.236l18.241-47.236h20.034l-28.557,69.652H97.9z
		"/>
	<path id="Fill-13_1_" fill="#FF4824" d="M33.292,53.85c8.216-1.859,16.413,1.51,20.975,7.88l-36.302,8.217
		C19.216,62.264,25.076,55.712,33.292,53.85z M54.47,84.07c-2.87,4.158-7.205,7.076-12.136,8.176
		c-8.265,1.865-16.516-1.559-21.063-8.012l36.416-8.236l5.932-1.344l11.337-2.57c-0.068-2.436-0.386-4.857-0.946-7.227
		c-4.612-19.597-24.562-31.815-44.552-27.294C9.459,42.089-3.006,61.643,1.611,81.242c4.616,19.596,24.562,31.811,44.555,27.287
		c11.784-2.662,20.947-10.547,25.542-20.584l-17.241-3.871L54.47,84.07z"/>
</g>
</svg>
